<?xml version="1.0" standalone="no"?>
<!DOCTYPE svg PUBLIC "-//W3C//DTD SVG 20010904//EN"
 "http://www.w3.org/TR/2001/REC-SVG-20010904/DTD/svg10.dtd">
<svg version="1.0" xmlns="http://www.w3.org/2000/svg"
 width="400.000000pt" height="400.000000pt" viewBox="0 0 400.000000 400.000000"
 preserveAspectRatio="xMidYMid meet">
<metadata>
Created by potrace 1.14, written by Peter Selinger 2001-2017
</metadata>
<g transform="translate(0.000000,400.000000) scale(0.100000,-0.100000)"
fill="#000000" stroke="none">
<path d="M1890 3994 c-19 -2 -82 -9 -140 -15 -477 -52 -958 -313 -1277 -693
-566 -674 -625 -1641 -145 -2376 310 -474 780 -782 1348 -881 184 -32 464 -32
648 0 568 99 1038 407 1348 881 432 660 432 1519 0 2180 -313 480 -824 806
-1385 885 -107 15 -337 26 -397 19z m1103 -839 c94 -16 167 -42 221 -77 l34
-22 -46 -131 c-25 -71 -47 -132 -48 -134 -2 -2 -41 15 -86 38 -46 23 -108 48
-138 56 -66 18 -184 19 -231 4 -86 -29 -140 -103 -141 -193 -1 -118 82 -198
354 -343 168 -88 214 -119 274 -181 88 -92 132 -197 141 -337 16 -253 -135
-442 -412 -516 -64 -17 -108 -22 -220 -22 -164 0 -252 19 -381 83 l-82 40 55
132 c30 73 58 137 62 141 5 4 35 -8 67 -28 99 -59 202 -88 319 -87 142 0 217
32 257 105 24 45 23 140 -3 197 -46 101 -112 155 -338 275 -79 42 -169 93
-201 115 -139 94 -210 233 -210 411 0 232 139 408 372 469 91 24 261 26 381 5z
m-1563 -5 c283 -34 450 -156 505 -367 22 -83 19 -226 -5 -305 -38 -125 -143
-250 -255 -305 -30 -15 -54 -32 -51 -38 2 -6 121 -190 265 -409 143 -219 261
-400 261 -402 0 -2 -82 -3 -182 -2 l-183 3 -243 378 -244 377 -104 0 -104 0 0
-380 0 -380 -165 0 -165 0 0 910 0 910 33 1 c17 1 86 5 152 9 193 11 394 11
485 0z m-527 -2091 c12 -6 30 -21 39 -33 l17 -21 974 -4 975 -3 7 21 c4 12 22
29 40 38 29 14 38 14 65 3 45 -19 67 -68 50 -110 -25 -60 -96 -74 -142 -28
l-22 22 -674 4 -674 5 4 -105 3 -105 94 -109 c107 -124 101 -121 283 -123 89
-1 97 1 103 20 4 11 22 27 40 36 45 21 90 4 113 -44 14 -30 14 -36 0 -66 -21
-45 -66 -64 -108 -47 -17 7 -35 21 -41 31 -9 17 -24 19 -157 19 l-147 0 -117
135 -118 135 0 94 c0 52 -3 101 -6 110 -5 14 -39 16 -280 16 -256 0 -274 -1
-283 -19 -6 -10 -24 -24 -41 -31 -66 -28 -138 43 -110 110 12 30 50 59 78 60
7 0 23 -5 35 -11z"/>
<path d="M1098 2864 c-5 -4 -8 -122 -8 -262 l0 -254 163 4 c135 4 171 8 218
26 103 40 149 116 149 244 0 81 -15 121 -61 166 -53 52 -137 73 -309 79 -80 3
-148 2 -152 -3z"/>
</g>
</svg>
