<?xml version="1.0" standalone="no"?>
<!DOCTYPE svg PUBLIC "-//W3C//DTD SVG 20010904//EN"
 "http://www.w3.org/TR/2001/REC-SVG-20010904/DTD/svg10.dtd">
<svg version="1.0" xmlns="http://www.w3.org/2000/svg"
 width="400.000000pt" height="400.000000pt" viewBox="0 0 400.000000 400.000000"
 preserveAspectRatio="xMidYMid meet">
<metadata>
Created by potrace 1.14, written by Peter Selinger 2001-2017
</metadata>
<g transform="translate(0.000000,400.000000) scale(0.100000,-0.100000)"
fill="#000000" stroke="none">
<path d="M41 2368 c-50 -245 -42 -577 18 -832 114 -479 423 -921 834 -1196
120 -80 344 -190 479 -234 240 -79 521 -114 765 -96 271 21 499 82 738 200
170 83 289 162 432 284 306 263 540 647 634 1042 60 255 68 587 18 832 l-10
52 -572 0 -572 0 122 -65 c148 -77 203 -114 264 -176 85 -87 133 -196 144
-329 24 -268 -158 -486 -454 -546 -118 -23 -337 -16 -436 16 -82 25 -215 88
-215 102 0 19 114 288 123 288 5 0 21 -9 37 -20 147 -105 384 -139 516 -75 83
40 114 112 94 211 -24 114 -102 188 -321 305 -200 106 -273 154 -329 216 -27
32 -50 61 -50 65 0 4 -85 8 -189 8 l-188 0 -36 -58 c-45 -73 -138 -162 -205
-196 -44 -22 -51 -29 -43 -44 5 -9 125 -192 265 -407 l255 -390 -187 -3 c-169
-2 -188 -1 -200 15 -7 10 -117 179 -245 376 l-232 357 -66 0 c-37 0 -81 3 -98
6 l-31 7 0 -382 0 -381 -175 0 -175 0 0 550 0 550 -349 0 -350 0 -10 -52z
m895 -1327 l29 -29 968 -4 c532 -1 967 0 967 3 0 4 12 18 26 33 58 57 154 17
154 -64 0 -80 -98 -122 -151 -65 l-24 25 -670 0 -670 0 3 -94 3 -95 101 -115
100 -116 126 0 127 0 28 30 c59 62 157 24 157 -60 0 -80 -96 -121 -152 -65
-23 23 -30 24 -173 27 l-148 3 -111 128 c-122 140 -124 146 -125 278 l-1 76
-172 6 c-95 4 -216 7 -268 7 -93 0 -96 -1 -123 -30 -59 -62 -157 -24 -157 60
0 83 97 121 156 61z"/>
<path d="M1100 2391 c0 -27 2 -28 63 -35 65 -6 228 7 283 23 17 5 44 16 60 24
27 15 15 16 -188 17 l-218 0 0 -29z"/>
</g>
</svg>
